<?xml version="1.0" encoding="UTF-8"?>
<!DOCTYPE svg PUBLIC "-//W3C//DTD SVG 1.1//EN" "http://www.w3.org/Graphics/SVG/1.1/DTD/svg11.dtd">
<svg xmlns="http://www.w3.org/2000/svg" version="1.1" width="500px" height="500px" style="shape-rendering:geometricPrecision; text-rendering:geometricPrecision; image-rendering:optimizeQuality; fill-rule:evenodd; clip-rule:evenodd" xmlns:xlink="http://www.w3.org/1999/xlink">
<g><path style="opacity:1" fill="#d5f4d7" d="M 252.5,115.5 C 255.794,116.115 258.961,117.115 262,118.5C 264.223,120.792 265.89,123.458 267,126.5C 271.447,128.545 270.947,129.545 265.5,129.5C 265.351,130.552 265.517,131.552 266,132.5C 268.391,133.429 270.225,134.929 271.5,137C 270.929,138.599 269.929,139.766 268.5,140.5C 264.91,140.457 262.243,138.957 260.5,136C 256.174,136.011 253.174,134.011 251.5,130C 252.308,129.692 252.975,129.192 253.5,128.5C 251.748,125.68 251.082,122.846 251.5,120C 253.367,119.081 255.367,118.581 257.5,118.5C 254.914,117.52 252.247,117.187 249.5,117.5C 250.29,116.599 251.29,115.932 252.5,115.5 Z"/></g>
<g><path style="opacity:1" fill="#ceedcf" d="M 249.5,117.5 C 252.247,117.187 254.914,117.52 257.5,118.5C 255.367,118.581 253.367,119.081 251.5,120C 251.082,122.846 251.748,125.68 253.5,128.5C 252.975,129.192 252.308,129.692 251.5,130C 253.174,134.011 256.174,136.011 260.5,136C 262.243,138.957 264.91,140.457 268.5,140.5C 270.4,142.619 272.066,144.953 273.5,147.5C 268.359,144.093 263.026,140.926 257.5,138C 255.119,137.262 253.119,137.762 251.5,139.5C 250.486,140.674 249.153,141.34 247.5,141.5C 246.733,140.828 246.066,139.995 245.5,139C 246.451,138.282 246.617,137.449 246,136.5C 244,135.167 242,135.167 240,136.5C 239.667,134.833 239.333,133.167 239,131.5C 237.482,130.837 236.315,129.837 235.5,128.5C 237.937,128.114 239.937,126.947 241.5,125C 240.207,124.51 238.873,124.343 237.5,124.5C 240.976,121.377 244.976,119.043 249.5,117.5 Z"/></g>
<g><path style="opacity:1" fill="#60806b" d="M 257.5,114.5 C 255.585,114.216 253.919,114.549 252.5,115.5C 251.29,115.932 250.29,116.599 249.5,117.5C 244.976,119.043 240.976,121.377 237.5,124.5C 234.933,125.75 232.267,126.917 229.5,128C 224.594,130.942 219.928,134.109 215.5,137.5C 208.183,140.155 201.516,143.822 195.5,148.5C 192.669,149.079 190.336,150.412 188.5,152.5C 183.86,154.82 179.193,157.153 174.5,159.5C 173.5,159.5 172.5,159.5 171.5,159.5C 197.104,144.694 222.771,129.86 248.5,115C 251.56,113.337 254.56,113.17 257.5,114.5 Z"/></g>
<g><path style="opacity:1" fill="#c1e0c2" d="M 235.5,128.5 C 236.315,129.837 237.482,130.837 239,131.5C 239.333,133.167 239.667,134.833 240,136.5C 242,135.167 244,135.167 246,136.5C 246.617,137.449 246.451,138.282 245.5,139C 246.066,139.995 246.733,140.828 247.5,141.5C 241.338,145.416 235.005,149.083 228.5,152.5C 225.833,153.167 223.167,153.833 220.5,154.5C 221.209,153.596 222.209,153.263 223.5,153.5C 223.181,151.25 223.681,149.25 225,147.5C 225.483,148.448 225.649,149.448 225.5,150.5C 229.959,150.081 232.959,147.748 234.5,143.5C 233.199,140.726 232.199,137.893 231.5,135C 232.022,132.269 233.356,130.102 235.5,128.5 Z"/></g>
<g><path style="opacity:1" fill="#d5f1dc" d="M 252.5,115.5 C 253.919,114.549 255.585,114.216 257.5,114.5C 261.3,116.234 264.966,118.234 268.5,120.5C 268.751,124.154 270.751,126.321 274.5,127C 277.751,131.587 282.084,134.587 287.5,136C 289.396,138.068 291.396,139.901 293.5,141.5C 291.571,141.231 289.905,141.731 288.5,143C 289.5,143.333 290.5,143.667 291.5,144C 289.473,145.879 287.14,147.046 284.5,147.5C 284.5,148.5 284.5,149.5 284.5,150.5C 280.667,149.975 277,148.975 273.5,147.5C 272.066,144.953 270.4,142.619 268.5,140.5C 269.929,139.766 270.929,138.599 271.5,137C 270.225,134.929 268.391,133.429 266,132.5C 265.517,131.552 265.351,130.552 265.5,129.5C 270.947,129.545 271.447,128.545 267,126.5C 265.89,123.458 264.223,120.792 262,118.5C 258.961,117.115 255.794,116.115 252.5,115.5 Z"/></g>
<g><path style="opacity:1" fill="#c3eac0" d="M 237.5,124.5 C 238.873,124.343 240.207,124.51 241.5,125C 239.937,126.947 237.937,128.114 235.5,128.5C 233.356,130.102 232.022,132.269 231.5,135C 232.199,137.893 233.199,140.726 234.5,143.5C 232.959,147.748 229.959,150.081 225.5,150.5C 225.649,149.448 225.483,148.448 225,147.5C 223.681,149.25 223.181,151.25 223.5,153.5C 222.209,153.263 221.209,153.596 220.5,154.5C 220.163,157.336 218.829,158.002 216.5,156.5C 218.148,154.571 219.815,152.571 221.5,150.5C 220.601,147.654 219.601,144.82 218.5,142C 219.833,141 219.833,140 218.5,139C 219.167,138.667 219.833,138.333 220.5,138C 218.866,137.506 217.199,137.34 215.5,137.5C 219.928,134.109 224.594,130.942 229.5,128C 232.267,126.917 234.933,125.75 237.5,124.5 Z"/></g>
<g><path style="opacity:1" fill="#cff4e2" d="M 293.5,141.5 C 294.806,142.968 296.306,144.301 298,145.5C 298.492,146.549 298.326,147.549 297.5,148.5C 299.167,149.833 300.833,151.167 302.5,152.5C 300.63,154.924 298.297,156.591 295.5,157.5C 292.838,155.732 289.838,155.065 286.5,155.5C 281.963,153.07 277.63,150.403 273.5,147.5C 277,148.975 280.667,149.975 284.5,150.5C 284.5,149.5 284.5,148.5 284.5,147.5C 287.14,147.046 289.473,145.879 291.5,144C 290.5,143.667 289.5,143.333 288.5,143C 289.905,141.731 291.571,141.231 293.5,141.5 Z"/></g>
<g><path style="opacity:1" fill="#b1e4b0" d="M 215.5,137.5 C 217.199,137.34 218.866,137.506 220.5,138C 219.833,138.333 219.167,138.667 218.5,139C 219.833,140 219.833,141 218.5,142C 219.601,144.82 220.601,147.654 221.5,150.5C 219.815,152.571 218.148,154.571 216.5,156.5C 212.969,159.347 208.969,161.347 204.5,162.5C 204.5,163.5 204.5,164.5 204.5,165.5C 203.341,167.25 201.674,168.25 199.5,168.5C 201.472,165.821 201.805,162.988 200.5,160C 201.83,160.077 203.164,160.577 204.5,161.5C 209.301,160.297 209.135,158.63 204,156.5C 203.667,156.833 203.333,157.167 203,157.5C 201.812,156.437 201.312,155.103 201.5,153.5C 202.873,153.657 204.207,153.49 205.5,153C 204.5,151.333 203.5,149.667 202.5,148C 200.249,148.207 197.915,148.373 195.5,148.5C 201.516,143.822 208.183,140.155 215.5,137.5 Z"/></g>
<g><path style="opacity:1" fill="#cde9e2" d="M 268.5,120.5 C 288.375,133.265 308.042,146.265 327.5,159.5C 326.153,158.829 324.986,158.829 324,159.5C 323.626,158.584 323.126,157.75 322.5,157C 317.813,156.242 313.979,154.076 311,150.5C 310.689,151.742 311.189,152.742 312.5,153.5C 312.192,154.308 311.692,154.975 311,155.5C 309.51,153.442 307.51,152.109 305,151.5C 303.79,156.536 300.624,158.536 295.5,157.5C 298.297,156.591 300.63,154.924 302.5,152.5C 300.833,151.167 299.167,149.833 297.5,148.5C 298.326,147.549 298.492,146.549 298,145.5C 296.306,144.301 294.806,142.968 293.5,141.5C 291.396,139.901 289.396,138.068 287.5,136C 282.084,134.587 277.751,131.587 274.5,127C 270.751,126.321 268.751,124.154 268.5,120.5 Z"/></g>
<g><path style="opacity:1" fill="#447266" d="M 273.5,147.5 C 277.63,150.403 281.963,153.07 286.5,155.5C 288.349,156.593 290.016,157.926 291.5,159.5C 290.5,159.5 289.5,159.5 288.5,159.5C 278.194,153.345 267.861,147.178 257.5,141C 255.655,139.872 253.655,139.372 251.5,139.5C 253.119,137.762 255.119,137.262 257.5,138C 263.026,140.926 268.359,144.093 273.5,147.5 Z"/></g>
<g><path style="opacity:1" fill="#a1dda2" d="M 199.5,168.5 C 198.85,168.196 198.183,167.863 197.5,167.5C 196.735,168.612 195.735,169.279 194.5,169.5C 195.478,167.188 197.145,165.522 199.5,164.5C 198.68,162.889 197.346,162.222 195.5,162.5C 195.211,167.275 193.545,167.775 190.5,164C 193.033,162.967 194.699,161.133 195.5,158.5C 195,158.167 194.5,157.833 194,157.5C 192.121,159.013 189.954,159.679 187.5,159.5C 187.5,158.5 187.5,157.5 187.5,156.5C 188.833,156.5 190.167,156.5 191.5,156.5C 191.5,155.167 191.5,153.833 191.5,152.5C 190.5,152.5 189.5,152.5 188.5,152.5C 190.336,150.412 192.669,149.079 195.5,148.5C 197.915,148.373 200.249,148.207 202.5,148C 203.5,149.667 204.5,151.333 205.5,153C 204.207,153.49 202.873,153.657 201.5,153.5C 201.312,155.103 201.812,156.437 203,157.5C 203.333,157.167 203.667,156.833 204,156.5C 209.135,158.63 209.301,160.297 204.5,161.5C 203.164,160.577 201.83,160.077 200.5,160C 201.805,162.988 201.472,165.821 199.5,168.5 Z"/></g>
<g><path style="opacity:1" fill="#b3d9ba" d="M 258.5,149.5 C 259.332,171.996 259.832,194.663 260,217.5C 260.309,218.766 260.809,219.933 261.5,221C 265.069,222.942 268.402,225.108 271.5,227.5C 266.866,226.097 262.699,223.764 259,220.5C 257.59,211.916 257.09,203.25 257.5,194.5C 257.5,192.167 257.5,189.833 257.5,187.5C 257.23,179.49 256.73,171.49 256,163.5C 255.586,163.957 255.086,164.291 254.5,164.5C 253.833,161.167 251.833,159.167 248.5,158.5C 247.005,159.705 245.672,159.705 244.5,158.5C 248.79,155.015 253.457,152.015 258.5,149.5 Z"/></g>
<g><path style="opacity:1" fill="#93d697" d="M 188.5,152.5 C 189.5,152.5 190.5,152.5 191.5,152.5C 191.5,153.833 191.5,155.167 191.5,156.5C 190.167,156.5 188.833,156.5 187.5,156.5C 187.5,157.5 187.5,158.5 187.5,159.5C 189.954,159.679 192.121,159.013 194,157.5C 194.5,157.833 195,158.167 195.5,158.5C 194.699,161.133 193.033,162.967 190.5,164C 193.545,167.775 195.211,167.275 195.5,162.5C 197.346,162.222 198.68,162.889 199.5,164.5C 197.145,165.522 195.478,167.188 194.5,169.5C 191.475,171.019 188.475,172.686 185.5,174.5C 185.33,173.178 185.663,172.011 186.5,171C 184.679,168.756 182.346,167.59 179.5,167.5C 179.265,163.197 176.931,161.53 172.5,162.5C 172.5,162.167 172.5,161.833 172.5,161.5C 173.167,160.833 173.833,160.167 174.5,159.5C 179.193,157.153 183.86,154.82 188.5,152.5 Z"/></g>
<g><path style="opacity:1" fill="#86ab94" d="M 228.5,152.5 C 221.147,157.846 213.147,162.18 204.5,165.5C 204.5,164.5 204.5,163.5 204.5,162.5C 208.969,161.347 212.969,159.347 216.5,156.5C 218.829,158.002 220.163,157.336 220.5,154.5C 223.167,153.833 225.833,153.167 228.5,152.5 Z"/></g>
<g><path style="opacity:1" fill="#c6f1ea" d="M 327.5,159.5 C 326.722,160.156 326.056,160.989 325.5,162C 326.289,163.626 327.289,165.126 328.5,166.5C 325.128,167.701 322.128,169.534 319.5,172C 318.5,172.667 317.5,172.667 316.5,172C 314.672,169.058 312.005,167.891 308.5,168.5C 302.702,165.767 297.035,162.767 291.5,159.5C 290.016,157.926 288.349,156.593 286.5,155.5C 289.838,155.065 292.838,155.732 295.5,157.5C 300.624,158.536 303.79,156.536 305,151.5C 307.51,152.109 309.51,153.442 311,155.5C 311.692,154.975 312.192,154.308 312.5,153.5C 311.189,152.742 310.689,151.742 311,150.5C 313.979,154.076 317.813,156.242 322.5,157C 323.126,157.75 323.626,158.584 324,159.5C 324.986,158.829 326.153,158.829 327.5,159.5 Z"/></g>
<g><path style="opacity:1" fill="#bae9ba" d="M 244.5,158.5 C 245.672,159.705 247.005,159.705 248.5,158.5C 251.833,159.167 253.833,161.167 254.5,164.5C 255.086,164.291 255.586,163.957 256,163.5C 256.73,171.49 257.23,179.49 257.5,187.5C 256.734,185.316 256.067,182.982 255.5,180.5C 250.769,179.054 246.603,176.721 243,173.5C 242.722,174.416 242.222,175.082 241.5,175.5C 241.5,171.167 241.5,166.833 241.5,162.5C 241.554,160.368 242.554,159.035 244.5,158.5 Z"/></g>
<g><path style="opacity:1" fill="#baebeb" d="M 327.5,159.5 C 333.077,160.78 336.744,164.113 338.5,169.5C 338.5,178.167 338.5,186.833 338.5,195.5C 337.839,194.282 337.172,192.949 336.5,191.5C 333.873,193.958 332.04,193.292 331,189.5C 329.308,191.245 327.475,191.578 325.5,190.5C 325.113,187.762 324.113,185.428 322.5,183.5C 322.509,181.692 322.009,180.025 321,178.5C 316.934,174.923 312.768,171.589 308.5,168.5C 312.005,167.891 314.672,169.058 316.5,172C 317.5,172.667 318.5,172.667 319.5,172C 322.128,169.534 325.128,167.701 328.5,166.5C 327.289,165.126 326.289,163.626 325.5,162C 326.056,160.989 326.722,160.156 327.5,159.5 Z"/></g>
<g><path style="opacity:1" fill="#84d08e" d="M 172.5,162.5 C 176.931,161.53 179.265,163.197 179.5,167.5C 182.346,167.59 184.679,168.756 186.5,171C 185.663,172.011 185.33,173.178 185.5,174.5C 183.896,175.287 183.229,176.62 183.5,178.5C 182.833,178.5 182.5,178.833 182.5,179.5C 181.603,180.598 180.77,180.598 180,179.5C 179.51,178.207 179.343,176.873 179.5,175.5C 178.167,175.5 176.833,175.5 175.5,175.5C 174.386,180.629 173.719,180.629 173.5,175.5C 168.678,174.548 166.844,171.548 168,166.5C 169.397,164.93 170.897,163.596 172.5,162.5 Z"/></g>
<g><path style="opacity:1" fill="#f4eedb" d="M 271.5,160.5 C 285.693,168.182 299.526,176.515 313,185.5C 313.483,186.448 313.649,187.448 313.5,188.5C 313.5,191.833 313.5,195.167 313.5,198.5C 312.515,195.943 311.515,193.276 310.5,190.5C 308.443,187.787 305.61,185.121 302,182.5C 301.586,182.957 301.086,183.291 300.5,183.5C 297.791,180.709 294.624,178.709 291,177.5C 289.067,180.385 286.567,181.052 283.5,179.5C 284.518,178.148 285.851,177.148 287.5,176.5C 286.24,175.618 285.074,174.618 284,173.5C 282.814,175.677 280.981,176.677 278.5,176.5C 278.196,175.85 277.863,175.183 277.5,174.5C 278.908,173.757 280.241,172.923 281.5,172C 279.909,168.385 276.909,165.552 272.5,163.5C 271.873,162.583 271.539,161.583 271.5,160.5 Z"/></g>
<g><path style="opacity:1" fill="#3a7d60" d="M 171.5,159.5 C 172.5,159.5 173.5,159.5 174.5,159.5C 173.833,160.167 173.167,160.833 172.5,161.5C 169.5,162.5 167.5,164.5 166.5,167.5C 165.506,177.319 165.173,187.319 165.5,197.5C 165.5,202.5 165.5,207.5 165.5,212.5C 165.5,213.833 165.5,215.167 165.5,216.5C 164.833,213.5 164.167,210.5 163.5,207.5C 163.5,207.167 163.5,206.833 163.5,206.5C 163.333,193.163 163.5,179.829 164,166.5C 166.04,164.63 167.873,162.63 169.5,160.5C 169.842,159.662 170.508,159.328 171.5,159.5 Z"/></g>
<g><path style="opacity:1" fill="#7acb90" d="M 172.5,161.5 C 172.5,161.833 172.5,162.167 172.5,162.5C 170.897,163.596 169.397,164.93 168,166.5C 166.844,171.548 168.678,174.548 173.5,175.5C 173.719,180.629 174.386,180.629 175.5,175.5C 176.833,175.5 178.167,175.5 179.5,175.5C 179.343,176.873 179.51,178.207 180,179.5C 180.77,180.598 181.603,180.598 182.5,179.5C 182.666,183.514 182.499,187.514 182,191.5C 181.333,192.167 180.667,192.833 180,193.5C 179.784,191.616 179.117,189.949 178,188.5C 174.472,190.352 172.305,192.852 171.5,196C 170.552,196.483 169.552,196.649 168.5,196.5C 167.048,186.943 166.382,177.277 166.5,167.5C 167.5,164.5 169.5,162.5 172.5,161.5 Z"/></g>
<g><path style="opacity:1" fill="#aae4ac" d="M 257.5,187.5 C 257.5,189.833 257.5,192.167 257.5,194.5C 256.596,193.791 256.263,192.791 256.5,191.5C 252.089,190.246 247.756,190.413 243.5,192C 242.874,192.75 242.374,193.584 242,194.5C 241.5,188.175 241.334,181.842 241.5,175.5C 242.222,175.082 242.722,174.416 243,173.5C 246.603,176.721 250.769,179.054 255.5,180.5C 256.067,182.982 256.734,185.316 257.5,187.5 Z"/></g>
<g><path style="opacity:1" fill="#faf0d6" d="M 313.5,198.5 C 313.664,201.187 313.497,203.854 313,206.5C 312.667,204.833 312.333,203.167 312,201.5C 309.29,199.498 306.623,197.498 304,195.5C 303.667,195.833 303.333,196.167 303,196.5C 303.195,194.874 303.195,193.207 303,191.5C 302.02,193.059 301.187,194.726 300.5,196.5C 298.36,195.527 296.693,194.027 295.5,192C 294.451,191.508 293.451,191.674 292.5,192.5C 291.445,189.29 288.778,187.957 284.5,188.5C 284.383,186.516 285.05,184.85 286.5,183.5C 285.369,182.396 284.535,182.729 284,184.5C 280.45,183.024 278.617,180.357 278.5,176.5C 280.981,176.677 282.814,175.677 284,173.5C 285.074,174.618 286.24,175.618 287.5,176.5C 285.851,177.148 284.518,178.148 283.5,179.5C 286.567,181.052 289.067,180.385 291,177.5C 294.624,178.709 297.791,180.709 300.5,183.5C 301.086,183.291 301.586,182.957 302,182.5C 305.61,185.121 308.443,187.787 310.5,190.5C 311.515,193.276 312.515,195.943 313.5,198.5 Z"/></g>
<g><path style="opacity:0.852" fill="#254e42" d="M 169.5,160.5 C 167.873,162.63 166.04,164.63 164,166.5C 163.5,179.829 163.333,193.163 163.5,206.5C 163.167,206.5 162.833,206.5 162.5,206.5C 161.778,194.838 161.611,183.171 162,171.5C 161.95,166.057 164.45,162.39 169.5,160.5 Z"/></g>
<g><path style="opacity:1" fill="#8cbf94" d="M 232.5,204.5 C 224.152,204.016 218.319,200.016 215,192.5C 214.501,186.843 214.334,181.176 214.5,175.5C 212.5,175.5 210.5,175.5 208.5,175.5C 210.503,173.018 213.169,172.018 216.5,172.5C 217.796,177.317 217.796,182.15 216.5,187C 216.631,189.253 217.131,191.419 218,193.5C 222.991,197.066 227.825,200.732 232.5,204.5 Z"/></g>
<g><path style="opacity:1" fill="#82d287" d="M 208.5,175.5 C 210.5,175.5 212.5,175.5 214.5,175.5C 214.334,181.176 214.501,186.843 215,192.5C 218.319,200.016 224.152,204.016 232.5,204.5C 232.5,205.167 232.5,205.833 232.5,206.5C 230.799,206.966 229.299,206.966 228,206.5C 226.812,207.563 226.312,208.897 226.5,210.5C 224.61,210.297 223.11,210.963 222,212.5C 219.633,210.044 216.8,209.211 213.5,210C 214.914,211.993 215.914,214.16 216.5,216.5C 215.167,215.833 213.833,215.167 212.5,214.5C 208.396,212.275 204.396,209.775 200.5,207C 197.081,199.47 196.581,191.636 199,183.5C 201.251,181.623 203.751,180.123 206.5,179C 207.305,177.887 207.972,176.721 208.5,175.5 Z"/></g>
<g><path style="opacity:1" fill="#457d56" d="M 258.5,149.5 C 253.457,152.015 248.79,155.015 244.5,158.5C 242.554,159.035 241.554,160.368 241.5,162.5C 240.504,177.324 240.171,192.324 240.5,207.5C 238.447,207.598 236.78,206.931 235.5,205.5C 236.048,190.272 236.881,174.939 238,159.5C 243.585,155.623 249.418,152.123 255.5,149C 256.749,148.26 257.749,148.427 258.5,149.5 Z"/></g>
<g><path style="opacity:1" fill="#5d4a33" d="M 269.5,159.5 C 269.334,165.842 269.5,172.175 270,178.5C 270.5,179.5 271,180.5 271.5,181.5C 279.141,185.832 286.474,190.499 293.5,195.5C 294.627,207.788 294.793,220.121 294,232.5C 293.241,234.063 292.074,235.063 290.5,235.5C 290.987,234.527 291.487,233.527 292,232.5C 292.667,220.833 292.667,209.167 292,197.5C 283.32,192.328 274.987,186.661 267,180.5C 264.347,173.946 264.014,167.279 266,160.5C 267.011,159.663 268.178,159.33 269.5,159.5 Z"/></g>
<g><path style="opacity:1" fill="#f3e5c4" d="M 269.5,159.5 C 270.492,159.328 271.158,159.662 271.5,160.5C 271.539,161.583 271.873,162.583 272.5,163.5C 276.909,165.552 279.909,168.385 281.5,172C 280.241,172.923 278.908,173.757 277.5,174.5C 277.863,175.183 278.196,175.85 278.5,176.5C 278.617,180.357 280.45,183.024 284,184.5C 284.535,182.729 285.369,182.396 286.5,183.5C 285.05,184.85 284.383,186.516 284.5,188.5C 288.778,187.957 291.445,189.29 292.5,192.5C 293.451,191.674 294.451,191.508 295.5,192C 296.693,194.027 298.36,195.527 300.5,196.5C 301.187,194.726 302.02,193.059 303,191.5C 303.195,193.207 303.195,194.874 303,196.5C 303.333,196.167 303.667,195.833 304,195.5C 306.623,197.498 309.29,199.498 312,201.5C 312.333,203.167 312.667,204.833 313,206.5C 313.497,203.854 313.664,201.187 313.5,198.5C 313.5,195.167 313.5,191.833 313.5,188.5C 314.833,207.167 314.833,225.833 313.5,244.5C 313.744,234.792 313.244,225.126 312,215.5C 310.1,213.146 308.767,210.48 308,207.5C 306.293,208.138 304.46,208.138 302.5,207.5C 301.655,203.985 299.655,201.319 296.5,199.5C 296.262,197.596 295.262,196.262 293.5,195.5C 286.474,190.499 279.141,185.832 271.5,181.5C 271,180.5 270.5,179.5 270,178.5C 269.5,172.175 269.334,165.842 269.5,159.5 Z"/></g>
<g><path style="opacity:1" fill="#95d99b" d="M 241.5,162.5 C 241.5,166.833 241.5,171.167 241.5,175.5C 241.334,181.842 241.5,188.175 242,194.5C 242.374,193.584 242.874,192.75 243.5,192C 247.756,190.413 252.089,190.246 256.5,191.5C 256.263,192.791 256.596,193.791 257.5,194.5C 257.09,203.25 257.59,211.916 259,220.5C 262.699,223.764 266.866,226.097 271.5,227.5C 271.557,228.609 271.89,229.609 272.5,230.5C 267.24,227.901 262.24,224.901 257.5,221.5C 257.672,220.508 257.338,219.842 256.5,219.5C 256.5,212.167 256.5,204.833 256.5,197.5C 255.5,197.5 254.5,197.5 253.5,197.5C 253.5,198.5 253.5,199.5 253.5,200.5C 249.445,199.257 245.778,198.424 242.5,198C 241.544,201.394 241.211,204.894 241.5,208.5C 238.303,208.595 235.303,207.928 232.5,206.5C 232.5,205.833 232.5,205.167 232.5,204.5C 233.609,204.557 234.609,204.89 235.5,205.5C 236.78,206.931 238.447,207.598 240.5,207.5C 240.171,192.324 240.504,177.324 241.5,162.5 Z"/></g>
<g><path style="opacity:0.663" fill="#79a38e" d="M 199.5,168.5 C 195.732,171.225 191.732,173.725 187.5,176C 186.299,176.903 185.465,178.069 185,179.5C 184.5,188.827 184.334,198.161 184.5,207.5C 184.167,207.5 183.833,207.5 183.5,207.5C 183.5,197.833 183.5,188.167 183.5,178.5C 183.229,176.62 183.896,175.287 185.5,174.5C 188.475,172.686 191.475,171.019 194.5,169.5C 195.735,169.279 196.735,168.612 197.5,167.5C 198.183,167.863 198.85,168.196 199.5,168.5 Z"/></g>
<g><path style="opacity:1" fill="#72c79e" d="M 166.5,167.5 C 166.382,177.277 167.048,186.943 168.5,196.5C 169.552,196.649 170.552,196.483 171.5,196C 172.305,192.852 174.472,190.352 178,188.5C 179.117,189.949 179.784,191.616 180,193.5C 180.667,192.833 181.333,192.167 182,191.5C 182.499,187.514 182.666,183.514 182.5,179.5C 182.5,178.833 182.833,178.5 183.5,178.5C 183.5,188.167 183.5,197.833 183.5,207.5C 182.166,209.466 180.832,211.466 179.5,213.5C 177.827,211.914 175.827,211.247 173.5,211.5C 173.649,210.448 173.483,209.448 173,208.5C 171.667,209.833 170.333,211.167 169,212.5C 167.887,211.24 167.72,210.073 168.5,209C 167.439,205.083 166.439,201.249 165.5,197.5C 165.173,187.319 165.506,177.319 166.5,167.5 Z"/></g>
<g><path style="opacity:1" fill="#437b51" d="M 208.5,175.5 C 207.972,176.721 207.305,177.887 206.5,179C 203.751,180.123 201.251,181.623 199,183.5C 196.581,191.636 197.081,199.47 200.5,207C 204.396,209.775 208.396,212.275 212.5,214.5C 210.784,214.371 209.117,214.038 207.5,213.5C 202.345,211.842 198.179,208.842 195,204.5C 194.076,197.392 194.409,190.392 196,183.5C 199.63,179.939 203.797,177.272 208.5,175.5 Z"/></g>
<g><path style="opacity:1" fill="#7ed384" d="M 232.5,206.5 C 234.068,208.844 233.735,210.844 231.5,212.5C 233.933,213.264 236.6,213.597 239.5,213.5C 239.963,218.438 241.63,218.771 244.5,214.5C 250.423,212.04 254.423,213.707 256.5,219.5C 257.338,219.842 257.672,220.508 257.5,221.5C 257.53,222.497 257.03,223.164 256,223.5C 255.454,222.711 254.787,221.711 254,220.5C 253.79,222.058 253.29,223.391 252.5,224.5C 250.73,223.236 249.063,221.736 247.5,220C 243.841,220.037 240.674,218.871 238,216.5C 235.667,217.833 233.333,217.833 231,216.5C 229.829,217.893 228.329,218.727 226.5,219C 228.077,221.217 229.744,223.383 231.5,225.5C 226.233,222.89 221.233,219.89 216.5,216.5C 215.914,214.16 214.914,211.993 213.5,210C 216.8,209.211 219.633,210.044 222,212.5C 223.11,210.963 224.61,210.297 226.5,210.5C 226.312,208.897 226.812,207.563 228,206.5C 229.299,206.966 230.799,206.966 232.5,206.5 Z"/></g>
<g><path style="opacity:1" fill="#97d8e7" d="M 322.5,183.5 C 324.113,185.428 325.113,187.762 325.5,190.5C 327.475,191.578 329.308,191.245 331,189.5C 332.04,193.292 333.873,193.958 336.5,191.5C 337.172,192.949 337.839,194.282 338.5,195.5C 338.5,200.5 338.5,205.5 338.5,210.5C 337.768,211.808 336.934,213.142 336,214.5C 333.433,213.73 330.933,212.73 328.5,211.5C 327.808,212.025 327.308,212.692 327,213.5C 326.16,210.536 325.16,210.203 324,212.5C 323.802,210.618 323.302,208.952 322.5,207.5C 322.5,199.5 322.5,191.5 322.5,183.5 Z"/></g>
<g><path style="opacity:1" fill="#89d78e" d="M 256.5,219.5 C 254.423,213.707 250.423,212.04 244.5,214.5C 241.63,218.771 239.963,218.438 239.5,213.5C 236.6,213.597 233.933,213.264 231.5,212.5C 233.735,210.844 234.068,208.844 232.5,206.5C 235.303,207.928 238.303,208.595 241.5,208.5C 241.211,204.894 241.544,201.394 242.5,198C 245.778,198.424 249.445,199.257 253.5,200.5C 253.5,199.5 253.5,198.5 253.5,197.5C 254.5,197.5 255.5,197.5 256.5,197.5C 256.5,204.833 256.5,212.167 256.5,219.5 Z"/></g>
<g><path style="opacity:1" fill="#68c4af" d="M 165.5,197.5 C 166.439,201.249 167.439,205.083 168.5,209C 167.72,210.073 167.887,211.24 169,212.5C 170.333,211.167 171.667,209.833 173,208.5C 173.483,209.448 173.649,210.448 173.5,211.5C 175.827,211.247 177.827,211.914 179.5,213.5C 180.832,211.466 182.166,209.466 183.5,207.5C 183.5,212.833 183.5,218.167 183.5,223.5C 180.428,223.817 177.428,223.484 174.5,222.5C 173.842,218.968 172.008,217.968 169,219.5C 167.169,217.418 166.002,215.085 165.5,212.5C 165.5,207.5 165.5,202.5 165.5,197.5 Z"/></g>
<g><path style="opacity:1" fill="#7ad083" d="M 257.5,221.5 C 262.24,224.901 267.24,227.901 272.5,230.5C 273.586,230.62 274.253,231.287 274.5,232.5C 274.167,233.167 273.833,233.833 273.5,234.5C 270.31,235.599 267.31,236.932 264.5,238.5C 264.567,239.959 264.234,241.292 263.5,242.5C 261.011,242.702 258.677,242.202 256.5,241C 253.161,238.439 249.495,236.439 245.5,235C 243.658,232.926 241.658,231.093 239.5,229.5C 244.064,228.423 248.397,226.757 252.5,224.5C 253.29,223.391 253.79,222.058 254,220.5C 254.787,221.711 255.454,222.711 256,223.5C 257.03,223.164 257.53,222.497 257.5,221.5 Z"/></g>
<g><path style="opacity:1" fill="#f8d99c" d="M 296.5,199.5 C 299.655,201.319 301.655,203.985 302.5,207.5C 304.46,208.138 306.293,208.138 308,207.5C 308.767,210.48 310.1,213.146 312,215.5C 313.244,225.126 313.744,234.792 313.5,244.5C 313.34,246.153 312.674,247.486 311.5,248.5C 311.704,243.583 310.704,238.917 308.5,234.5C 307.811,237.23 306.478,239.564 304.5,241.5C 305.411,238.898 305.411,236.065 304.5,233C 303.128,232.598 301.795,232.098 300.5,231.5C 299.06,232.952 297.394,233.952 295.5,234.5C 296.458,222.884 296.791,211.217 296.5,199.5 Z"/></g>
<g><path style="opacity:1" fill="#84c6e0" d="M 322.5,207.5 C 323.302,208.952 323.802,210.618 324,212.5C 325.16,210.203 326.16,210.536 327,213.5C 327.308,212.692 327.808,212.025 328.5,211.5C 330.933,212.73 333.433,213.73 336,214.5C 336.934,213.142 337.768,211.808 338.5,210.5C 338.5,219.167 338.5,227.833 338.5,236.5C 337.683,234.031 337.183,231.365 337,228.5C 336.667,228.833 336.333,229.167 336,229.5C 335.692,228.692 335.192,228.025 334.5,227.5C 332.958,228.747 331.458,228.747 330,227.5C 329.326,228.578 328.326,229.245 327,229.5C 324.849,228.833 323.349,227.5 322.5,225.5C 322.5,219.5 322.5,213.5 322.5,207.5 Z"/></g>
<g><path style="opacity:1" fill="#5ac0bb" d="M 165.5,212.5 C 166.002,215.085 167.169,217.418 169,219.5C 172.008,217.968 173.842,218.968 174.5,222.5C 177.428,223.484 180.428,223.817 183.5,223.5C 183.822,229.358 183.489,235.025 182.5,240.5C 180.944,240.397 179.277,239.563 177.5,238C 179.873,235.195 179.207,234.362 175.5,235.5C 176.274,241.395 175.274,241.729 172.5,236.5C 171.675,235.614 170.675,235.281 169.5,235.5C 169.649,236.552 169.483,237.552 169,238.5C 167.772,235.402 166.606,232.402 165.5,229.5C 165.5,225.167 165.5,220.833 165.5,216.5C 165.5,215.167 165.5,213.833 165.5,212.5 Z"/></g>
<g><path style="opacity:1" fill="#7ad281" d="M 252.5,224.5 C 248.397,226.757 244.064,228.423 239.5,229.5C 236.55,228.692 233.883,227.358 231.5,225.5C 229.744,223.383 228.077,221.217 226.5,219C 228.329,218.727 229.829,217.893 231,216.5C 233.333,217.833 235.667,217.833 238,216.5C 240.674,218.871 243.841,220.037 247.5,220C 249.063,221.736 250.73,223.236 252.5,224.5 Z"/></g>
<g><path style="opacity:1" fill="#419053" d="M 197.5,221.5 C 197.225,230.221 197.558,238.887 198.5,247.5C 197.85,247.196 197.183,246.863 196.5,246.5C 196.167,242.333 195.833,238.167 195.5,234C 195.509,229.443 196.175,225.276 197.5,221.5 Z"/></g>
<g><path style="opacity:1" fill="#2d5c3b" d="M 207.5,213.5 C 209.117,214.038 210.784,214.371 212.5,214.5C 213.833,215.167 215.167,215.833 216.5,216.5C 221.233,219.89 226.233,222.89 231.5,225.5C 233.883,227.358 236.55,228.692 239.5,229.5C 241.658,231.093 243.658,232.926 245.5,235C 249.495,236.439 253.161,238.439 256.5,241C 258.677,242.202 261.011,242.702 263.5,242.5C 258.213,243.593 253.213,242.426 248.5,239C 234.661,230.637 220.994,222.137 207.5,213.5 Z"/></g>
<g><path style="opacity:1" fill="#6fa27f" d="M 271.5,227.5 C 275.726,228.215 277.892,230.548 278,234.5C 273.353,237.572 268.52,240.238 263.5,242.5C 264.234,241.292 264.567,239.959 264.5,238.5C 267.31,236.932 270.31,235.599 273.5,234.5C 273.833,233.833 274.167,233.167 274.5,232.5C 274.253,231.287 273.586,230.62 272.5,230.5C 271.89,229.609 271.557,228.609 271.5,227.5 Z"/></g>
<g><path style="opacity:1" fill="#76c67d" d="M 198.5,220.5 C 203.272,222.72 207.938,225.22 212.5,228C 214.317,229.8 215.484,231.966 216,234.5C 218.775,237.78 221.942,240.446 225.5,242.5C 225.5,242.833 225.5,243.167 225.5,243.5C 218.836,240.519 213.669,235.853 210,229.5C 206.788,228.278 203.621,227.945 200.5,228.5C 201.115,230.116 202.115,231.449 203.5,232.5C 205.851,233.012 207.851,234.012 209.5,235.5C 208.555,237.517 207.055,237.85 205,236.5C 199.476,237.976 198.142,241.309 201,246.5C 207.228,251.262 213.395,255.929 219.5,260.5C 211.677,257.313 204.677,252.98 198.5,247.5C 197.558,238.887 197.225,230.221 197.5,221.5C 197.5,220.833 197.833,220.5 198.5,220.5 Z"/></g>
<g><path style="opacity:1" fill="#315c3e" d="M 198.5,220.5 C 197.833,220.5 197.5,220.833 197.5,221.5C 196.175,225.276 195.509,229.443 195.5,234C 195.833,238.167 196.167,242.333 196.5,246.5C 197.183,246.863 197.85,247.196 198.5,247.5C 204.677,252.98 211.677,257.313 219.5,260.5C 221.118,262.316 223.118,263.649 225.5,264.5C 225.842,265.338 226.508,265.672 227.5,265.5C 228.167,266.5 228.833,267.5 229.5,268.5C 217.982,262.823 206.815,256.49 196,249.5C 192.919,241.801 191.919,233.801 193,225.5C 193.086,221.218 194.919,219.552 198.5,220.5 Z"/></g>
<g><path style="opacity:1" fill="#77badb" d="M 322.5,225.5 C 323.349,227.5 324.849,228.833 327,229.5C 328.326,229.245 329.326,228.578 330,227.5C 331.458,228.747 332.958,228.747 334.5,227.5C 335.192,228.025 335.692,228.692 336,229.5C 336.333,229.167 336.667,228.833 337,228.5C 337.183,231.365 337.683,234.031 338.5,236.5C 338.823,242.69 338.49,248.69 337.5,254.5C 337.348,250.738 336.681,247.072 335.5,243.5C 330.829,242.663 326.496,240.996 322.5,238.5C 322.5,234.167 322.5,229.833 322.5,225.5 Z"/></g>
<g><path style="opacity:1" fill="#4dbbc4" d="M 165.5,229.5 C 166.606,232.402 167.772,235.402 169,238.5C 169.483,237.552 169.649,236.552 169.5,235.5C 170.675,235.281 171.675,235.614 172.5,236.5C 175.274,241.729 176.274,241.395 175.5,235.5C 179.207,234.362 179.873,235.195 177.5,238C 179.277,239.563 180.944,240.397 182.5,240.5C 182.666,245.511 182.499,250.511 182,255.5C 181.333,254.167 180.667,254.167 180,255.5C 179.433,252.832 178.933,250.166 178.5,247.5C 177.5,247.5 176.5,247.5 175.5,247.5C 175.657,248.873 175.49,250.207 175,251.5C 174,248.833 173,246.167 172,243.5C 170.331,247.298 169.164,251.298 168.5,255.5C 166.997,250.171 165.997,244.837 165.5,239.5C 165.5,236.167 165.5,232.833 165.5,229.5 Z"/></g>
<g><path style="opacity:1" fill="#84673f" d="M 293.5,195.5 C 295.262,196.262 296.262,197.596 296.5,199.5C 296.791,211.217 296.458,222.884 295.5,234.5C 294.163,235.315 293.163,236.482 292.5,238C 288.268,240.275 284.268,242.775 280.5,245.5C 272.161,249.004 264.161,253.171 256.5,258C 254.934,258.765 253.601,258.598 252.5,257.5C 265.785,251.192 278.452,243.859 290.5,235.5C 292.074,235.063 293.241,234.063 294,232.5C 294.793,220.121 294.627,207.788 293.5,195.5 Z"/></g>
<g><path style="opacity:1" fill="#face7d" d="M 311.5,248.5 C 309.801,248.34 308.134,248.506 306.5,249C 306.833,249.333 307.167,249.667 307.5,250C 304.865,251.024 302.198,251.857 299.5,252.5C 300.122,250.665 301.456,249.498 303.5,249C 301.381,246.607 298.715,245.274 295.5,245C 294.953,244.075 294.287,243.242 293.5,242.5C 291.417,244.604 289.083,244.938 286.5,243.5C 284.55,244.372 282.55,245.039 280.5,245.5C 284.268,242.775 288.268,240.275 292.5,238C 293.163,236.482 294.163,235.315 295.5,234.5C 297.394,233.952 299.06,232.952 300.5,231.5C 301.795,232.098 303.128,232.598 304.5,233C 305.411,236.065 305.411,238.898 304.5,241.5C 306.478,239.564 307.811,237.23 308.5,234.5C 310.704,238.917 311.704,243.583 311.5,248.5 Z"/></g>
<g><path style="opacity:1" fill="#68b2d7" d="M 322.5,238.5 C 326.496,240.996 330.829,242.663 335.5,243.5C 336.681,247.072 337.348,250.738 337.5,254.5C 334.156,255.76 330.822,256.594 327.5,257C 326.333,256.5 325.5,255.667 325,254.5C 324.667,254.833 324.333,255.167 324,255.5C 323.392,253.846 322.892,252.179 322.5,250.5C 322.5,246.5 322.5,242.5 322.5,238.5 Z"/></g>
<g><path style="opacity:1" fill="#71cb74" d="M 225.5,243.5 C 225.5,250.5 225.5,257.5 225.5,264.5C 223.118,263.649 221.118,262.316 219.5,260.5C 213.395,255.929 207.228,251.262 201,246.5C 198.142,241.309 199.476,237.976 205,236.5C 207.055,237.85 208.555,237.517 209.5,235.5C 207.851,234.012 205.851,233.012 203.5,232.5C 202.115,231.449 201.115,230.116 200.5,228.5C 203.621,227.945 206.788,228.278 210,229.5C 213.669,235.853 218.836,240.519 225.5,243.5 Z"/></g>
<g><path style="opacity:1" fill="#4fb4c6" d="M 183.5,207.5 C 183.833,207.5 184.167,207.5 184.5,207.5C 184.03,223.596 184.53,239.596 186,255.5C 205.814,267.319 225.648,278.986 245.5,290.5C 240.294,289.611 235.294,287.945 230.5,285.5C 227.551,281.701 223.551,280.035 218.5,280.5C 218.719,279.325 218.386,278.325 217.5,277.5C 213.237,276.557 208.904,275.057 204.5,273C 200.359,270.424 196.359,267.59 192.5,264.5C 191.5,264.833 190.833,265.5 190.5,266.5C 192.361,267.528 193.695,269.028 194.5,271C 192.887,271.089 191.72,270.255 191,268.5C 189.35,269.891 188.85,271.391 189.5,273C 187.866,273.494 186.199,273.66 184.5,273.5C 184.5,274.5 184.5,275.5 184.5,276.5C 183.5,276.5 182.5,276.5 181.5,276.5C 177.69,274.093 173.69,271.926 169.5,270C 168.837,268.482 167.837,267.315 166.5,266.5C 165.585,257.54 165.252,248.54 165.5,239.5C 165.997,244.837 166.997,250.171 168.5,255.5C 169.164,251.298 170.331,247.298 172,243.5C 173,246.167 174,248.833 175,251.5C 175.49,250.207 175.657,248.873 175.5,247.5C 176.5,247.5 177.5,247.5 178.5,247.5C 178.933,250.166 179.433,252.832 180,255.5C 180.667,254.167 181.333,254.167 182,255.5C 182.499,250.511 182.666,245.511 182.5,240.5C 183.489,235.025 183.822,229.358 183.5,223.5C 183.5,218.167 183.5,212.833 183.5,207.5 Z"/></g>
<g><path style="opacity:1" fill="#bcb962" d="M 225.5,242.5 C 227.674,242.75 229.341,243.75 230.5,245.5C 229.5,245.5 228.5,245.5 227.5,245.5C 227.5,252.167 227.5,258.833 227.5,265.5C 226.508,265.672 225.842,265.338 225.5,264.5C 225.5,257.5 225.5,250.5 225.5,243.5C 225.5,243.167 225.5,242.833 225.5,242.5 Z"/></g>
<g><path style="opacity:1" fill="#f2c169" d="M 299.5,252.5 C 297.952,252.821 297.285,253.821 297.5,255.5C 295.856,255.714 294.356,255.38 293,254.5C 291.943,256.219 291.11,258.053 290.5,260C 287.586,261.784 284.586,263.284 281.5,264.5C 280.962,262.883 280.629,261.216 280.5,259.5C 283.227,258.633 285.227,256.799 286.5,254C 283.292,254.398 280.125,255.231 277,256.5C 275.468,254.438 273.468,253.104 271,252.5C 266.538,254.098 262.372,256.265 258.5,259C 255.854,259.497 253.187,259.664 250.5,259.5C 244.741,254.776 238.408,250.776 231.5,247.5C 230.702,247.043 230.369,246.376 230.5,245.5C 238.45,248.473 245.783,252.473 252.5,257.5C 253.601,258.598 254.934,258.765 256.5,258C 264.161,253.171 272.161,249.004 280.5,245.5C 282.55,245.039 284.55,244.372 286.5,243.5C 289.083,244.938 291.417,244.604 293.5,242.5C 294.287,243.242 294.953,244.075 295.5,245C 298.715,245.274 301.381,246.607 303.5,249C 301.456,249.498 300.122,250.665 299.5,252.5 Z"/></g>
<g><path style="opacity:1" fill="#2d6d8b" d="M 288.5,159.5 C 289.5,159.5 290.5,159.5 291.5,159.5C 297.035,162.767 302.702,165.767 308.5,168.5C 312.768,171.589 316.934,174.923 321,178.5C 322.009,180.025 322.509,181.692 322.5,183.5C 322.5,191.5 322.5,199.5 322.5,207.5C 322.5,213.5 322.5,219.5 322.5,225.5C 322.5,229.833 322.5,234.167 322.5,238.5C 322.5,242.5 322.5,246.5 322.5,250.5C 320.77,254.068 318.103,256.902 314.5,259C 307.542,262.904 300.876,267.07 294.5,271.5C 290.495,272.498 287.161,274.498 284.5,277.5C 275.938,281.786 267.605,286.62 259.5,292C 257.235,293.118 254.901,293.951 252.5,294.5C 251.29,294.068 250.29,293.401 249.5,292.5C 251.199,292.66 252.866,292.494 254.5,292C 272.834,280.164 291.5,268.831 310.5,258C 314.058,256.108 316.558,253.275 318,249.5C 318.667,226.833 318.667,204.167 318,181.5C 317.31,178.804 315.81,176.637 313.5,175C 305.103,169.808 296.769,164.642 288.5,159.5 Z"/></g>
<g><path style="opacity:1" fill="#efb148" d="M 230.5,245.5 C 230.369,246.376 230.702,247.043 231.5,247.5C 238.408,250.776 244.741,254.776 250.5,259.5C 253.64,260.641 256.973,260.808 260.5,260C 262.769,257.977 265.436,257.144 268.5,257.5C 268.762,258.978 268.429,260.311 267.5,261.5C 262.477,263.461 262.477,264.794 267.5,265.5C 269.486,265.213 271.32,264.547 273,263.5C 274.434,263.93 275.601,264.764 276.5,266C 272.947,267.35 269.281,268.517 265.5,269.5C 264.637,270.726 264.637,272.06 265.5,273.5C 265.5,274.167 265.5,274.833 265.5,275.5C 262.279,276.573 259.112,276.573 256,275.5C 255.383,276.449 255.549,277.282 256.5,278C 253.75,278.625 251.75,277.625 250.5,275C 252.155,273.556 252.822,271.722 252.5,269.5C 247.058,268.646 242.392,266.313 238.5,262.5C 235.057,263.048 233.39,265.048 233.5,268.5C 232.167,268.5 230.833,268.5 229.5,268.5C 228.833,267.5 228.167,266.5 227.5,265.5C 227.5,258.833 227.5,252.167 227.5,245.5C 228.5,245.5 229.5,245.5 230.5,245.5 Z"/></g>
<g><path style="opacity:1" fill="#f4bb59" d="M 281.5,264.5 C 278.763,267.217 275.43,268.55 271.5,268.5C 271.5,269.5 271.5,270.5 271.5,271.5C 269.315,271.704 267.315,272.37 265.5,273.5C 264.637,272.06 264.637,270.726 265.5,269.5C 269.281,268.517 272.947,267.35 276.5,266C 275.601,264.764 274.434,263.93 273,263.5C 271.32,264.547 269.486,265.213 267.5,265.5C 262.477,264.794 262.477,263.461 267.5,261.5C 268.429,260.311 268.762,258.978 268.5,257.5C 265.436,257.144 262.769,257.977 260.5,260C 256.973,260.808 253.64,260.641 250.5,259.5C 253.187,259.664 255.854,259.497 258.5,259C 262.372,256.265 266.538,254.098 271,252.5C 273.468,253.104 275.468,254.438 277,256.5C 280.125,255.231 283.292,254.398 286.5,254C 285.227,256.799 283.227,258.633 280.5,259.5C 280.629,261.216 280.962,262.883 281.5,264.5 Z"/></g>
<g><path style="opacity:1" fill="#59a4cb" d="M 338.5,260.5 C 337.98,264.536 335.98,267.703 332.5,270C 325.004,274.022 317.671,278.189 310.5,282.5C 308.167,282.5 305.833,282.5 303.5,282.5C 303.5,282.167 303.5,281.833 303.5,281.5C 305.398,279.75 306.731,277.584 307.5,275C 314.202,272.357 315.536,273.69 311.5,279C 311.833,279.167 312.167,279.333 312.5,279.5C 315.032,276.771 318.032,274.771 321.5,273.5C 322.23,272.066 323.23,270.9 324.5,270C 321.522,269.304 318.522,268.804 315.5,268.5C 314.392,266.305 314.559,264.305 316,262.5C 318.269,263.595 320.436,263.261 322.5,261.5C 324.444,262.189 326.444,262.689 328.5,263C 329.047,263.925 329.713,264.758 330.5,265.5C 331.833,264.167 333.167,264.167 334.5,265.5C 335.134,263.228 336.468,261.561 338.5,260.5 Z"/></g>
<g><path style="opacity:1" fill="#1c6e81" d="M 163.5,207.5 C 164.167,210.5 164.833,213.5 165.5,216.5C 165.5,220.833 165.5,225.167 165.5,229.5C 165.5,232.833 165.5,236.167 165.5,239.5C 165.252,248.54 165.585,257.54 166.5,266.5C 164.955,265.77 164.122,264.437 164,262.5C 163.5,244.17 163.333,225.836 163.5,207.5 Z"/></g>
<g><path style="opacity:0.871" fill="#c6a46a" d="M 311.5,248.5 C 296.832,258.505 281.499,267.505 265.5,275.5C 265.5,274.833 265.5,274.167 265.5,273.5C 267.315,272.37 269.315,271.704 271.5,271.5C 271.5,270.5 271.5,269.5 271.5,268.5C 275.43,268.55 278.763,267.217 281.5,264.5C 284.586,263.284 287.586,261.784 290.5,260C 291.11,258.053 291.943,256.219 293,254.5C 294.356,255.38 295.856,255.714 297.5,255.5C 297.285,253.821 297.952,252.821 299.5,252.5C 302.198,251.857 304.865,251.024 307.5,250C 307.167,249.667 306.833,249.333 306.5,249C 308.134,248.506 309.801,248.34 311.5,248.5 Z"/></g>
<g><path style="opacity:1" fill="#59a5ca" d="M 338.5,169.5 C 339.833,199.833 339.833,230.167 338.5,260.5C 336.468,261.561 335.134,263.228 334.5,265.5C 333.167,264.167 331.833,264.167 330.5,265.5C 329.713,264.758 329.047,263.925 328.5,263C 326.444,262.689 324.444,262.189 322.5,261.5C 320.436,263.261 318.269,263.595 316,262.5C 314.559,264.305 314.392,266.305 315.5,268.5C 318.522,268.804 321.522,269.304 324.5,270C 323.23,270.9 322.23,272.066 321.5,273.5C 318.032,274.771 315.032,276.771 312.5,279.5C 312.167,279.333 311.833,279.167 311.5,279C 315.536,273.69 314.202,272.357 307.5,275C 306.731,277.584 305.398,279.75 303.5,281.5C 299.766,281.262 299.1,280.095 301.5,278C 301.389,276.278 300.889,276.112 300,277.5C 300.592,273.102 298.759,271.102 294.5,271.5C 300.876,267.07 307.542,262.904 314.5,259C 318.103,256.902 320.77,254.068 322.5,250.5C 322.892,252.179 323.392,253.846 324,255.5C 324.333,255.167 324.667,254.833 325,254.5C 325.5,255.667 326.333,256.5 327.5,257C 330.822,256.594 334.156,255.76 337.5,254.5C 338.49,248.69 338.823,242.69 338.5,236.5C 338.5,227.833 338.5,219.167 338.5,210.5C 338.5,205.5 338.5,200.5 338.5,195.5C 338.5,186.833 338.5,178.167 338.5,169.5 Z"/></g>
<g><path style="opacity:1" fill="#e4a846" d="M 265.5,275.5 C 261.568,280.128 256.568,281.961 250.5,281C 249.944,280.617 249.611,280.117 249.5,279.5C 249.631,278.624 249.298,277.957 248.5,277.5C 243.238,274.712 238.238,271.712 233.5,268.5C 233.39,265.048 235.057,263.048 238.5,262.5C 242.392,266.313 247.058,268.646 252.5,269.5C 252.822,271.722 252.155,273.556 250.5,275C 251.75,277.625 253.75,278.625 256.5,278C 255.549,277.282 255.383,276.449 256,275.5C 259.112,276.573 262.279,276.573 265.5,275.5 Z"/></g>
<g><path style="opacity:0.988" fill="#694d22" d="M 229.5,268.5 C 230.833,268.5 232.167,268.5 233.5,268.5C 238.238,271.712 243.238,274.712 248.5,277.5C 249.298,277.957 249.631,278.624 249.5,279.5C 242.504,276.337 235.838,272.671 229.5,268.5 Z"/></g>
<g><path style="opacity:1" fill="#4dabd0" d="M 294.5,271.5 C 298.759,271.102 300.592,273.102 300,277.5C 300.889,276.112 301.389,276.278 301.5,278C 299.1,280.095 299.766,281.262 303.5,281.5C 303.5,281.833 303.5,282.167 303.5,282.5C 302.178,282.67 301.011,282.337 300,281.5C 299.333,284.167 298.667,284.167 298,281.5C 297.785,284.126 297.952,286.459 298.5,288.5C 294.322,290.754 289.989,292.754 285.5,294.5C 284.824,293.398 284.158,292.398 283.5,291.5C 284.584,289.681 285.918,288.015 287.5,286.5C 286.675,285.614 285.675,285.281 284.5,285.5C 284.5,284.167 284.5,282.833 284.5,281.5C 289.665,280.611 289.665,279.278 284.5,277.5C 287.161,274.498 290.495,272.498 294.5,271.5 Z"/></g>
<g><path style="opacity:1" fill="#43b6ce" d="M 230.5,285.5 C 228.973,285.427 227.973,286.094 227.5,287.5C 225.926,287.937 224.759,288.937 224,290.5C 222.491,289.91 220.991,289.244 219.5,288.5C 221.9,287.915 223.9,286.748 225.5,285C 224.991,283.831 224.158,282.998 223,282.5C 218.905,285.161 214.405,285.995 209.5,285C 210.888,284.111 210.722,283.611 209,283.5C 208,284.167 207,284.833 206,285.5C 200.942,285.482 196.775,283.649 193.5,280C 191.527,279.505 189.527,279.338 187.5,279.5C 185.181,279.008 183.181,278.008 181.5,276.5C 182.5,276.5 183.5,276.5 184.5,276.5C 184.5,275.5 184.5,274.5 184.5,273.5C 186.199,273.66 187.866,273.494 189.5,273C 188.85,271.391 189.35,269.891 191,268.5C 191.72,270.255 192.887,271.089 194.5,271C 193.695,269.028 192.361,267.528 190.5,266.5C 190.833,265.5 191.5,264.833 192.5,264.5C 196.359,267.59 200.359,270.424 204.5,273C 208.904,275.057 213.237,276.557 217.5,277.5C 218.386,278.325 218.719,279.325 218.5,280.5C 223.551,280.035 227.551,281.701 230.5,285.5 Z"/></g>
<g><path style="opacity:1" fill="#43b1cd" d="M 187.5,279.5 C 189.527,279.338 191.527,279.505 193.5,280C 196.775,283.649 200.942,285.482 206,285.5C 207,284.833 208,284.167 209,283.5C 210.722,283.611 210.888,284.111 209.5,285C 214.405,285.995 218.905,285.161 223,282.5C 224.158,282.998 224.991,283.831 225.5,285C 223.9,286.748 221.9,287.915 219.5,288.5C 220.991,289.244 222.491,289.91 224,290.5C 224.759,288.937 225.926,287.937 227.5,287.5C 227.196,288.15 226.863,288.817 226.5,289.5C 228.078,290.298 229.744,290.798 231.5,291C 229.893,292.049 229.227,293.549 229.5,295.5C 228.209,296.778 226.209,297.445 223.5,297.5C 223.5,296.167 223.5,294.833 223.5,293.5C 219.67,293.496 218.67,295.162 220.5,298.5C 209.007,292.923 198.007,286.59 187.5,279.5 Z"/></g>
<g><path style="opacity:1" fill="#174b5e" d="M 162.5,206.5 C 162.833,206.5 163.167,206.5 163.5,206.5C 163.5,206.833 163.5,207.167 163.5,207.5C 163.333,225.836 163.5,244.17 164,262.5C 164.122,264.437 164.955,265.77 166.5,266.5C 167.837,267.315 168.837,268.482 169.5,270C 173.69,271.926 177.69,274.093 181.5,276.5C 183.181,278.008 185.181,279.008 187.5,279.5C 198.007,286.59 209.007,292.923 220.5,298.5C 227.361,302.763 234.361,306.763 241.5,310.5C 244.382,312.026 247.048,314.026 249.5,316.5C 220.37,301.683 191.87,285.683 164,268.5C 163.138,266.913 162.471,265.246 162,263.5C 161.309,244.489 161.475,225.489 162.5,206.5 Z"/></g>
<g><path style="opacity:1" fill="#43b1cd" d="M 230.5,285.5 C 235.294,287.945 240.294,289.611 245.5,290.5C 246.833,291.167 248.167,291.833 249.5,292.5C 250.29,293.401 251.29,294.068 252.5,294.5C 253.167,295.167 253.833,295.833 254.5,296.5C 253.07,296.579 251.736,296.246 250.5,295.5C 246.915,297.147 243.249,298.481 239.5,299.5C 239.5,298.5 239.5,297.5 239.5,296.5C 241.167,296.5 242.833,296.5 244.5,296.5C 244.64,294.876 243.973,293.71 242.5,293C 240.899,292.727 239.399,292.227 238,291.5C 237.692,292.308 237.192,292.975 236.5,293.5C 235.5,292.833 234.5,292.167 233.5,291.5C 232.479,292.002 232.312,292.668 233,293.5C 237.017,294.859 236.85,296.692 232.5,299C 228.735,299.319 224.735,299.153 220.5,298.5C 218.67,295.162 219.67,293.496 223.5,293.5C 223.5,294.833 223.5,296.167 223.5,297.5C 226.209,297.445 228.209,296.778 229.5,295.5C 229.227,293.549 229.893,292.049 231.5,291C 229.744,290.798 228.078,290.298 226.5,289.5C 226.863,288.817 227.196,288.15 227.5,287.5C 227.973,286.094 228.973,285.427 230.5,285.5 Z"/></g>
<g><path style="opacity:1" fill="#45accc" d="M 284.5,277.5 C 289.665,279.278 289.665,280.611 284.5,281.5C 284.5,282.833 284.5,284.167 284.5,285.5C 285.675,285.281 286.675,285.614 287.5,286.5C 285.918,288.015 284.584,289.681 283.5,291.5C 281.172,293.3 278.505,294.467 275.5,295C 274.95,296.845 273.95,298.345 272.5,299.5C 269.792,297.564 266.792,297.064 263.5,298C 265.734,298.969 267.734,300.302 269.5,302C 268.5,302.833 267.5,303.667 266.5,304.5C 267.5,305.333 268.5,306.167 269.5,307C 266.711,307.125 265.045,307.958 264.5,309.5C 264.5,308.167 264.5,306.833 264.5,305.5C 261.05,306.244 259.384,304.91 259.5,301.5C 257.446,301.365 255.779,302.032 254.5,303.5C 253.624,303.631 252.957,303.298 252.5,302.5C 253.751,301.369 254.751,300.036 255.5,298.5C 255.457,297.584 255.124,296.917 254.5,296.5C 253.833,295.833 253.167,295.167 252.5,294.5C 254.901,293.951 257.235,293.118 259.5,292C 267.605,286.62 275.938,281.786 284.5,277.5 Z"/></g>
<g><path style="opacity:1" fill="#489dc0" d="M 303.5,282.5 C 305.833,282.5 308.167,282.5 310.5,282.5C 294.856,292.466 279.189,302.466 263.5,312.5C 263.263,311.209 263.596,310.209 264.5,309.5C 265.045,307.958 266.711,307.125 269.5,307C 268.5,306.167 267.5,305.333 266.5,304.5C 267.5,303.667 268.5,302.833 269.5,302C 267.734,300.302 265.734,298.969 263.5,298C 266.792,297.064 269.792,297.564 272.5,299.5C 273.95,298.345 274.95,296.845 275.5,295C 278.505,294.467 281.172,293.3 283.5,291.5C 284.158,292.398 284.824,293.398 285.5,294.5C 289.989,292.754 294.322,290.754 298.5,288.5C 297.952,286.459 297.785,284.126 298,281.5C 298.667,284.167 299.333,284.167 300,281.5C 301.011,282.337 302.178,282.67 303.5,282.5 Z"/></g>
<g><path style="opacity:1" fill="#41abcd" d="M 254.5,296.5 C 255.124,296.917 255.457,297.584 255.5,298.5C 254.751,300.036 253.751,301.369 252.5,302.5C 252.957,303.298 253.624,303.631 254.5,303.5C 254.611,305.648 253.944,305.981 252.5,304.5C 250.729,305.035 250.396,305.869 251.5,307C 249.167,307.333 246.833,307.667 244.5,308C 243.922,309.417 242.922,310.25 241.5,310.5C 234.361,306.763 227.361,302.763 220.5,298.5C 224.735,299.153 228.735,299.319 232.5,299C 236.85,296.692 237.017,294.859 233,293.5C 232.312,292.668 232.479,292.002 233.5,291.5C 234.5,292.167 235.5,292.833 236.5,293.5C 237.192,292.975 237.692,292.308 238,291.5C 239.399,292.227 240.899,292.727 242.5,293C 243.973,293.71 244.64,294.876 244.5,296.5C 242.833,296.5 241.167,296.5 239.5,296.5C 239.5,297.5 239.5,298.5 239.5,299.5C 243.249,298.481 246.915,297.147 250.5,295.5C 251.736,296.246 253.07,296.579 254.5,296.5 Z"/></g>
<g><path style="opacity:1" fill="#40a3c6" d="M 264.5,309.5 C 263.596,310.209 263.263,311.209 263.5,312.5C 260.978,314.172 258.312,315.672 255.5,317C 253.288,317.789 251.288,317.622 249.5,316.5C 247.048,314.026 244.382,312.026 241.5,310.5C 242.922,310.25 243.922,309.417 244.5,308C 246.833,307.667 249.167,307.333 251.5,307C 250.396,305.869 250.729,305.035 252.5,304.5C 253.944,305.981 254.611,305.648 254.5,303.5C 255.779,302.032 257.446,301.365 259.5,301.5C 259.384,304.91 261.05,306.244 264.5,305.5C 264.5,306.833 264.5,308.167 264.5,309.5 Z"/></g>
<g><path style="opacity:1" fill="#dab066" d="M 387.5,335.5 C 388.492,335.328 389.158,335.662 389.5,336.5C 390.141,337.482 390.807,338.482 391.5,339.5C 389.604,340.466 387.604,340.799 385.5,340.5C 385.389,339.883 385.056,339.383 384.5,339C 381.518,338.502 378.518,338.335 375.5,338.5C 375.599,341.673 374.932,344.673 373.5,347.5C 371.809,343.337 372.475,339.671 375.5,336.5C 379.429,335.567 383.429,335.234 387.5,335.5 Z"/></g>
<g><path style="opacity:0.769" fill="#4e412c" d="M 373.5,335.5 C 371.701,339.903 371.034,344.57 371.5,349.5C 368.963,346.306 368.13,342.639 369,338.5C 370.129,336.859 371.629,335.859 373.5,335.5 Z"/></g>
<g><path style="opacity:0.949" fill="#725c3a" d="M 389.5,336.5 C 392.423,337.163 393.09,338.83 391.5,341.5C 389.177,342.831 387.177,342.498 385.5,340.5C 387.604,340.799 389.604,340.466 391.5,339.5C 390.807,338.482 390.141,337.482 389.5,336.5 Z"/></g>
<g><path style="opacity:0.998" fill="#dedfe1" d="M 168.5,340.5 C 177.002,339.966 185.336,340.633 193.5,342.5C 197.843,345.167 200.176,349.167 200.5,354.5C 200.5,358.833 200.5,363.167 200.5,367.5C 200.5,367.833 200.5,368.167 200.5,368.5C 199.279,369.028 198.113,369.695 197,370.5C 195.97,368.654 194.804,366.987 193.5,365.5C 193.665,361.818 193.499,358.152 193,354.5C 191.92,351.251 189.753,349.251 186.5,348.5C 184.71,347.003 182.544,346.336 180,346.5C 178.236,346.544 176.569,346.878 175,347.5C 174.5,356.827 174.334,366.161 174.5,375.5C 177.833,375.5 181.167,375.5 184.5,375.5C 187.097,375.721 187.097,376.221 184.5,377C 180.848,377.499 177.182,377.665 173.5,377.5C 173.622,372.768 173.122,368.102 172,363.5C 171.801,365.402 170.967,366.902 169.5,368C 172.239,370.683 172.072,372.183 169,372.5C 168.5,361.839 168.333,351.172 168.5,340.5 Z"/></g>
<g><path style="opacity:1" fill="#d7ab63" d="M 266.5,338.5 C 271.887,340.256 275.22,343.923 276.5,349.5C 277.744,354.298 277.744,358.965 276.5,363.5C 274.88,364.841 273.88,366.674 273.5,369C 272.184,369.528 271.517,369.028 271.5,367.5C 274.256,360.786 274.089,354.119 271,347.5C 266.518,342.941 261.351,341.608 255.5,343.5C 253.5,343.5 251.5,343.5 249.5,343.5C 249.5,342.5 249.5,341.5 249.5,340.5C 250.289,340.217 250.956,339.717 251.5,339C 256.489,338.501 261.489,338.334 266.5,338.5 Z"/></g>
<g><path style="opacity:1" fill="#d9d8db" d="M 162.5,342.5 C 161.227,344.713 160.227,347.046 159.5,349.5C 156.099,355.209 152.766,360.876 149.5,366.5C 148.833,366.833 148.167,367.167 147.5,367.5C 145.894,368.78 144.894,368.28 144.5,366C 147.97,363.797 148.304,361.297 145.5,358.5C 148.728,352.714 151.395,346.714 153.5,340.5C 156.85,340.335 160.183,340.502 163.5,341C 162.944,341.383 162.611,341.883 162.5,342.5 Z"/></g>
<g><path style="opacity:0.617" fill="#785e39" d="M 338.5,340.5 C 338.5,340.833 338.5,341.167 338.5,341.5C 332.575,341.192 326.741,341.525 321,342.5C 320.211,346.091 320.378,349.591 321.5,353C 326.672,353.365 331.672,353.531 336.5,353.5C 338.052,357.928 336.386,359.595 331.5,358.5C 332.568,357.566 333.901,357.232 335.5,357.5C 335.5,356.5 335.5,355.5 335.5,354.5C 330.489,354.666 325.489,354.499 320.5,354C 319.371,349.921 319.204,345.755 320,341.5C 326.076,340.524 332.242,340.19 338.5,340.5 Z"/></g>
<g><path style="opacity:1" fill="#deb163" d="M 229.5,338.5 C 232.719,338.776 235.385,340.109 237.5,342.5C 237.833,345.5 236.5,346.833 233.5,346.5C 232.508,346.672 231.842,346.338 231.5,345.5C 231.082,344.778 230.416,344.278 229.5,344C 224.582,343.805 219.749,343.305 215,342.5C 213.165,344.449 211.999,346.783 211.5,349.5C 210.28,349.113 209.613,348.28 209.5,347C 210.985,344.683 212.652,342.516 214.5,340.5C 215.263,339.732 216.263,339.232 217.5,339C 221.486,338.501 225.486,338.334 229.5,338.5 Z"/></g>
<g><path style="opacity:0.431" fill="#5f4422" d="M 360.5,342.5 C 356.566,341.64 352.566,341.307 348.5,341.5C 348.5,345.833 348.5,350.167 348.5,354.5C 350.5,354.5 352.5,354.5 354.5,354.5C 352.393,355.468 350.059,355.802 347.5,355.5C 347.5,350.167 347.5,344.833 347.5,339.5C 350.85,339.335 354.183,339.502 357.5,340C 358.942,340.377 359.942,341.21 360.5,342.5 Z"/></g>
<g><path style="opacity:1" fill="#d5a55e" d="M 365.5,340.5 C 365.911,344.463 365.078,348.13 363,351.5C 362.31,352.738 361.81,352.738 361.5,351.5C 361.723,349.658 362.057,347.825 362.5,346C 362.613,344.301 361.947,343.134 360.5,342.5C 359.942,341.21 358.942,340.377 357.5,340C 354.183,339.502 350.85,339.335 347.5,339.5C 347.5,344.833 347.5,350.167 347.5,355.5C 350.059,355.802 352.393,355.468 354.5,354.5C 356.216,354.371 357.883,354.038 359.5,353.5C 360.497,353.47 361.164,353.97 361.5,355C 359.541,356.3 358.374,358.133 358,360.5C 357.014,361.171 355.847,361.171 354.5,360.5C 354.389,359.883 354.056,359.383 353.5,359C 351.527,358.505 349.527,358.338 347.5,358.5C 347.5,364.167 347.5,369.833 347.5,375.5C 346.167,375.5 344.833,375.5 343.5,375.5C 343.5,362.167 343.5,348.833 343.5,335.5C 349.56,334.383 355.56,334.549 361.5,336C 363.751,336.748 365.084,338.248 365.5,340.5 Z"/></g>
<g><path style="opacity:1" fill="#927242" d="M 387.5,335.5 C 383.429,335.234 379.429,335.567 375.5,336.5C 372.475,339.671 371.809,343.337 373.5,347.5C 374.932,344.673 375.599,341.673 375.5,338.5C 378.518,338.335 381.518,338.502 384.5,339C 385.056,339.383 385.389,339.883 385.5,340.5C 379.2,338.725 376.367,341.059 377,347.5C 378.376,348.705 379.542,350.038 380.5,351.5C 374.623,348.307 373.289,349.64 376.5,355.5C 373.379,354.712 371.712,352.712 371.5,349.5C 371.034,344.57 371.701,339.903 373.5,335.5C 378.32,333.077 382.986,333.077 387.5,335.5 Z"/></g>
<g><path style="opacity:0.979" fill="#606469" d="M 193.5,342.5 C 185.336,340.633 177.002,339.966 168.5,340.5C 167.51,346.31 167.177,352.31 167.5,358.5C 165.699,353.086 164.032,347.753 162.5,342.5C 162.611,341.883 162.944,341.383 163.5,341C 160.183,340.502 156.85,340.335 153.5,340.5C 151.395,346.714 148.728,352.714 145.5,358.5C 142.703,358.033 141.369,356.367 141.5,353.5C 144.726,350.07 147.226,346.07 149,341.5C 149.75,340.874 150.584,340.374 151.5,340C 161.41,339.82 171.244,339.32 181,338.5C 184.076,339.288 187.242,339.788 190.5,340C 191.942,340.377 192.942,341.21 193.5,342.5 Z"/></g>
<g><path style="opacity:1" fill="#6e5430" d="M 266.5,338.5 C 261.489,338.334 256.489,338.501 251.5,339C 250.956,339.717 250.289,340.217 249.5,340.5C 242.358,346.464 239.358,354.13 240.5,363.5C 238.44,355.6 239.774,348.267 244.5,341.5C 246.89,338.972 249.89,337.472 253.5,337C 258.136,336.061 262.469,336.561 266.5,338.5 Z"/></g>
<g><path style="opacity:0.141" fill="#422d10" d="M 360.5,342.5 C 361.947,343.134 362.613,344.301 362.5,346C 362.057,347.825 361.723,349.658 361.5,351.5C 360.5,351.833 359.833,352.5 359.5,353.5C 357.883,354.038 356.216,354.371 354.5,354.5C 358.86,351.829 360.86,347.829 360.5,342.5 Z"/></g>
<g><path style="opacity:1" fill="#bc9051" d="M 380.5,351.5 C 391.294,353.767 395.128,360.101 392,370.5C 390.549,372.464 388.716,373.797 386.5,374.5C 382.833,374.5 379.167,374.5 375.5,374.5C 373.47,372.463 371.804,370.13 370.5,367.5C 371.689,366.571 373.022,366.238 374.5,366.5C 375.833,367.167 376.833,368.167 377.5,369.5C 384.949,372.025 388.449,369.358 388,361.5C 386.736,359.393 384.903,358.393 382.5,358.5C 380.181,358.008 378.181,357.008 376.5,355.5C 373.289,349.64 374.623,348.307 380.5,351.5 Z"/></g>
<g><path style="opacity:0.675" fill="#4a3e2c" d="M 229.5,338.5 C 225.486,338.334 221.486,338.501 217.5,339C 216.263,339.232 215.263,339.732 214.5,340.5C 210.038,342.305 207.372,345.638 206.5,350.5C 204.244,359.401 205.41,367.735 210,375.5C 211.965,377.55 214.132,379.217 216.5,380.5C 207.347,379.176 202.513,373.843 202,364.5C 201.768,365.737 201.268,366.737 200.5,367.5C 200.5,363.167 200.5,358.833 200.5,354.5C 202.438,348.819 205.771,343.985 210.5,340C 215.052,338.327 219.719,337.16 224.5,336.5C 226.336,337.028 228.003,337.694 229.5,338.5 Z"/></g>
<g><path style="opacity:0.696" fill="#43311a" d="M 255.5,343.5 C 261.351,341.608 266.518,342.941 271,347.5C 274.089,354.119 274.256,360.786 271.5,367.5C 266.684,374.215 260.35,376.215 252.5,373.5C 260.622,374.553 266.122,371.22 269,363.5C 270.159,357.836 269.492,352.502 267,347.5C 263.708,344.68 259.875,343.347 255.5,343.5 Z"/></g>
<g><path style="opacity:1" fill="#dbab61" d="M 338.5,336.5 C 338.5,337.833 338.5,339.167 338.5,340.5C 332.242,340.19 326.076,340.524 320,341.5C 319.204,345.755 319.371,349.921 320.5,354C 325.489,354.499 330.489,354.666 335.5,354.5C 335.5,355.5 335.5,356.5 335.5,357.5C 333.901,357.232 332.568,357.566 331.5,358.5C 331.167,358.5 330.833,358.5 330.5,358.5C 326.833,358.5 323.167,358.5 319.5,358.5C 319.5,363.167 319.5,367.833 319.5,372.5C 325.69,372.823 331.69,372.49 337.5,371.5C 337.833,371.5 338.167,371.5 338.5,371.5C 338.5,373.167 338.5,374.833 338.5,376.5C 331.167,376.5 323.833,376.5 316.5,376.5C 316.5,363.167 316.5,349.833 316.5,336.5C 323.833,336.5 331.167,336.5 338.5,336.5 Z"/></g>
<g><path style="opacity:0.298" fill="#382714" d="M 338.5,335.5 C 340.167,335.5 341.833,335.5 343.5,335.5C 343.5,348.833 343.5,362.167 343.5,375.5C 344.833,375.5 346.167,375.5 347.5,375.5C 347.5,369.833 347.5,364.167 347.5,358.5C 349.527,358.338 351.527,358.505 353.5,359C 354.056,359.383 354.389,359.883 354.5,360.5C 354.5,360.833 354.5,361.167 354.5,361.5C 352.97,360.933 351.47,360.267 350,359.5C 349.667,359.833 349.333,360.167 349,360.5C 348.829,365.864 348.329,371.198 347.5,376.5C 344.965,377.503 342.798,376.837 341,374.5C 340.292,375.381 339.458,376.047 338.5,376.5C 338.5,374.833 338.5,373.167 338.5,371.5C 339.809,369.429 340.475,366.929 340.5,364C 339.494,356.793 339.494,349.626 340.5,342.5C 340.043,341.702 339.376,341.369 338.5,341.5C 338.5,341.167 338.5,340.833 338.5,340.5C 338.5,339.167 338.5,337.833 338.5,336.5C 338.5,336.167 338.5,335.833 338.5,335.5 Z"/></g>
<g><path style="opacity:1" fill="#dcdcdd" d="M 134.5,341.5 C 137.841,344.84 140.174,348.84 141.5,353.5C 141.369,356.367 142.703,358.033 145.5,358.5C 148.304,361.297 147.97,363.797 144.5,366C 144.894,368.28 145.894,368.78 147.5,367.5C 147.5,372.833 147.5,378.167 147.5,383.5C 145.5,383.5 143.5,383.5 141.5,383.5C 141.348,377.301 140.682,371.301 139.5,365.5C 134.925,358.023 130.592,350.356 126.5,342.5C 129.086,341.52 131.753,341.187 134.5,341.5 Z"/></g>
<g><path style="opacity:1" fill="#bb9459" d="M 214.5,340.5 C 212.652,342.516 210.985,344.683 209.5,347C 209.613,348.28 210.28,349.113 211.5,349.5C 211.999,346.783 213.165,344.449 215,342.5C 219.749,343.305 224.582,343.805 229.5,344C 230.416,344.278 231.082,344.778 231.5,345.5C 216.059,343.106 209.225,349.773 211,365.5C 211.611,369.07 213.444,371.737 216.5,373.5C 216.577,374.75 217.244,375.583 218.5,376C 221.146,376.497 223.813,376.664 226.5,376.5C 226.389,377.117 226.056,377.617 225.5,378C 223.5,378.667 221.5,378.667 219.5,378C 214.554,375.392 211.054,371.558 209,366.5C 208.7,360.814 208.7,355.147 209,349.5C 208.329,350.252 207.496,350.586 206.5,350.5C 207.372,345.638 210.038,342.305 214.5,340.5 Z"/></g>
<g><path style="opacity:0.186" fill="#553d1e" d="M 338.5,335.5 C 338.5,335.833 338.5,336.167 338.5,336.5C 331.167,336.5 323.833,336.5 316.5,336.5C 316.5,349.833 316.5,363.167 316.5,376.5C 323.833,376.5 331.167,376.5 338.5,376.5C 330.677,377.656 322.677,377.823 314.5,377C 313.92,372.908 313.754,368.741 314,364.5C 313.667,363.5 313.333,362.5 313,361.5C 312.768,362.737 312.268,363.737 311.5,364.5C 311.625,358.797 311.292,353.13 310.5,347.5C 311.222,347.918 311.722,348.584 312,349.5C 311.928,344.692 312.761,340.192 314.5,336C 322.493,335.5 330.493,335.334 338.5,335.5 Z"/></g>
<g><path style="opacity:0.963" fill="#4e5255" d="M 186.5,348.5 C 189.753,349.251 191.92,351.251 193,354.5C 193.499,358.152 193.665,361.818 193.5,365.5C 192.108,367.273 190.941,369.273 190,371.5C 188.887,372.305 187.721,372.972 186.5,373.5C 182.881,374.244 179.215,374.577 175.5,374.5C 175.5,373.167 175.5,371.833 175.5,370.5C 176.404,371.209 176.737,372.209 176.5,373.5C 181.421,373.957 184.921,371.957 187,367.5C 188.11,363.397 188.944,359.23 189.5,355C 189.16,352.489 188.16,350.322 186.5,348.5 Z"/></g>
<g><path style="opacity:0.276" fill="#463015" d="M 298.5,337.5 C 297.167,337.5 295.833,337.5 294.5,337.5C 290.5,337.5 286.5,337.5 282.5,337.5C 281.504,350.99 281.171,364.656 281.5,378.5C 286.167,378.5 290.833,378.5 295.5,378.5C 289.963,379.808 284.296,379.808 278.5,378.5C 276.965,374.876 277.632,371.709 280.5,369C 279.91,367.491 279.244,365.991 278.5,364.5C 277.818,365.243 277.151,365.909 276.5,366.5C 276.5,365.5 276.5,364.5 276.5,363.5C 277.744,358.965 277.744,354.298 276.5,349.5C 277.788,346.3 277.788,342.967 276.5,339.5C 276.977,338.522 277.643,337.689 278.5,337C 285.346,336.179 292.013,336.346 298.5,337.5 Z"/></g>
<g><path style="opacity:0.204" fill="#402610" d="M 382.5,358.5 C 384.903,358.393 386.736,359.393 388,361.5C 388.449,369.358 384.949,372.025 377.5,369.5C 379.792,369.756 381.959,369.423 384,368.5C 384.557,366.385 385.391,364.385 386.5,362.5C 385.451,360.784 384.118,359.451 382.5,358.5 Z"/></g>
<g><path style="opacity:1" fill="#ac824b" d="M 365.5,340.5 C 368.794,348.293 366.794,354.627 359.5,359.5C 362.248,364.666 365.248,369.666 368.5,374.5C 366.751,376.531 364.751,376.865 362.5,375.5C 358.545,371.551 355.879,366.884 354.5,361.5C 354.5,361.167 354.5,360.833 354.5,360.5C 355.847,361.171 357.014,361.171 358,360.5C 358.374,358.133 359.541,356.3 361.5,355C 361.164,353.97 360.497,353.47 359.5,353.5C 359.833,352.5 360.5,351.833 361.5,351.5C 361.81,352.738 362.31,352.738 363,351.5C 365.078,348.13 365.911,344.463 365.5,340.5 Z"/></g>
<g><path style="opacity:0.486" fill="#212529" d="M 134.5,341.5 C 131.753,341.187 129.086,341.52 126.5,342.5C 130.592,350.356 134.925,358.023 139.5,365.5C 139.5,371.833 139.5,378.167 139.5,384.5C 137.983,384.489 136.816,383.823 136,382.5C 135.862,376.419 135.196,370.419 134,364.5C 129.634,357.631 125.468,350.631 121.5,343.5C 121.977,342.522 122.643,341.689 123.5,341C 127.358,340.19 131.024,340.357 134.5,341.5 Z"/></g>
<g><path style="opacity:1" fill="#3a2e1c" d="M 244.5,341.5 C 239.774,348.267 238.44,355.6 240.5,363.5C 242.211,369.253 245.211,374.253 249.5,378.5C 246.667,376.522 243.667,374.689 240.5,373C 237.132,368.787 235.799,363.953 236.5,358.5C 236.627,354.799 236.96,351.132 237.5,347.5C 235.901,347.768 234.568,347.434 233.5,346.5C 236.5,346.833 237.833,345.5 237.5,342.5C 238.151,343.091 238.818,343.757 239.5,344.5C 240.94,343.048 242.606,342.048 244.5,341.5 Z"/></g>
<g><path style="opacity:0.682" fill="#69512d" d="M 330.5,358.5 C 327.375,359.479 324.042,359.813 320.5,359.5C 320.833,363.5 321.167,367.5 321.5,371.5C 327.142,371.414 332.476,371.414 337.5,371.5C 331.69,372.49 325.69,372.823 319.5,372.5C 319.5,367.833 319.5,363.167 319.5,358.5C 323.167,358.5 326.833,358.5 330.5,358.5 Z"/></g>
<g><path style="opacity:1" fill="#3f4347" d="M 162.5,342.5 C 164.032,347.753 165.699,353.086 167.5,358.5C 167.269,366.209 167.602,373.876 168.5,381.5C 173.833,381.5 179.167,381.5 184.5,381.5C 181.197,382.478 177.697,383.145 174,383.5C 170.475,383.035 166.975,382.701 163.5,382.5C 163.667,371.828 163.5,361.161 163,350.5C 162.667,349.5 162.333,348.5 162,347.5C 161.292,348.381 160.458,349.047 159.5,349.5C 160.227,347.046 161.227,344.713 162.5,342.5 Z"/></g>
<g><path style="opacity:0.652" fill="#8e9094" d="M 186.5,348.5 C 182.949,347.39 179.449,347.39 176,348.5C 175.5,355.826 175.334,363.159 175.5,370.5C 175.5,371.833 175.5,373.167 175.5,374.5C 179.215,374.577 182.881,374.244 186.5,373.5C 185.833,374.167 185.167,374.833 184.5,375.5C 181.167,375.5 177.833,375.5 174.5,375.5C 174.334,366.161 174.5,356.827 175,347.5C 176.569,346.878 178.236,346.544 180,346.5C 182.544,346.336 184.71,347.003 186.5,348.5 Z"/></g>
<g><path style="opacity:0.129" fill="#463011" d="M 374.5,366.5 C 373.022,366.238 371.689,366.571 370.5,367.5C 371.804,370.13 373.47,372.463 375.5,374.5C 372.497,372.993 369.83,370.993 367.5,368.5C 369.3,365.546 371.633,364.879 374.5,366.5 Z"/></g>
<g><path style="opacity:1" fill="#c69953" d="M 249.5,340.5 C 249.5,341.5 249.5,342.5 249.5,343.5C 251.5,343.5 253.5,343.5 255.5,343.5C 246.293,348.605 243.459,356.272 247,366.5C 248.371,369.266 250.204,371.599 252.5,373.5C 260.35,376.215 266.684,374.215 271.5,367.5C 271.517,369.028 272.184,369.528 273.5,369C 273.88,366.674 274.88,364.841 276.5,363.5C 276.5,364.5 276.5,365.5 276.5,366.5C 275.831,369.849 274.164,372.516 271.5,374.5C 265.729,378.214 259.396,379.88 252.5,379.5C 251.209,379.737 250.209,379.404 249.5,378.5C 245.211,374.253 242.211,369.253 240.5,363.5C 239.358,354.13 242.358,346.464 249.5,340.5 Z"/></g>
<g><path style="opacity:0.816" fill="#67502c" d="M 375.5,374.5 C 379.167,374.5 382.833,374.5 386.5,374.5C 382.833,377.167 379.167,377.167 375.5,374.5 Z"/></g>
<g><path style="opacity:1" fill="#7c7d86" d="M 139.5,365.5 C 140.682,371.301 141.348,377.301 141.5,383.5C 143.5,383.5 145.5,383.5 147.5,383.5C 147.5,378.167 147.5,372.833 147.5,367.5C 148.167,367.167 148.833,366.833 149.5,366.5C 148.924,372.485 148.424,378.485 148,384.5C 144.793,385.55 141.959,385.55 139.5,384.5C 139.5,378.167 139.5,371.833 139.5,365.5 Z"/></g>
<g><path style="opacity:0.157" fill="#402c1c" d="M 216.5,373.5 C 219.582,375.181 222.915,375.848 226.5,375.5C 226.5,375.833 226.5,376.167 226.5,376.5C 223.813,376.664 221.146,376.497 218.5,376C 217.244,375.583 216.577,374.75 216.5,373.5 Z"/></g>
<g><path style="opacity:1" fill="#8b6f42" d="M 235.5,378.5 C 235.5,377.167 235.5,375.833 235.5,374.5C 232.518,374.963 229.518,375.296 226.5,375.5C 229.101,372.372 232.434,371.205 236.5,372C 240.443,374.505 240.11,376.672 235.5,378.5 Z"/></g>
<g><path style="opacity:1" fill="#c49654" d="M 282.5,337.5 C 282.181,348.544 282.681,359.544 284,370.5C 284.901,361.02 285.735,351.687 286.5,342.5C 290.084,340.882 294.084,339.882 298.5,339.5C 297.051,338.828 295.718,338.161 294.5,337.5C 295.833,337.5 297.167,337.5 298.5,337.5C 304.64,338.31 308.64,341.643 310.5,347.5C 311.292,353.13 311.625,358.797 311.5,364.5C 309.622,373.041 304.288,377.708 295.5,378.5C 290.833,378.5 286.167,378.5 281.5,378.5C 281.171,364.656 281.504,350.99 282.5,337.5 Z M 286.5,367.5 C 286.5,359.833 286.5,352.167 286.5,344.5C 297.81,340.831 303.476,344.997 303.5,357C 302.832,367.171 297.498,372.337 287.5,372.5C 287.784,370.585 287.451,368.919 286.5,367.5 Z"/></g>
<g><path style="opacity:0.886" fill="#392a18" d="M 286.5,342.5 C 304.233,340.63 310.733,348.296 306,365.5C 301.466,372.677 294.966,375.343 286.5,373.5C 286.5,371.5 286.5,369.5 286.5,367.5C 287.451,368.919 287.784,370.585 287.5,372.5C 297.498,372.337 302.832,367.171 303.5,357C 303.476,344.997 297.81,340.831 286.5,344.5C 286.5,343.833 286.5,343.167 286.5,342.5 Z"/></g>
<g><path style="opacity:1" fill="#e7b25c" d="M 282.5,337.5 C 286.5,337.5 290.5,337.5 294.5,337.5C 295.718,338.161 297.051,338.828 298.5,339.5C 294.084,339.882 290.084,340.882 286.5,342.5C 285.735,351.687 284.901,361.02 284,370.5C 282.681,359.544 282.181,348.544 282.5,337.5 Z"/></g>
<g><path style="opacity:1" fill="#cfcfd2" d="M 168.5,340.5 C 168.333,351.172 168.5,361.839 169,372.5C 172.072,372.183 172.239,370.683 169.5,368C 170.967,366.902 171.801,365.402 172,363.5C 173.122,368.102 173.622,372.768 173.5,377.5C 177.182,377.665 180.848,377.499 184.5,377C 187.097,376.221 187.097,375.721 184.5,375.5C 185.167,374.833 185.833,374.167 186.5,373.5C 187.721,372.972 188.887,372.305 190,371.5C 190.941,369.273 192.108,367.273 193.5,365.5C 194.804,366.987 195.97,368.654 197,370.5C 198.113,369.695 199.279,369.028 200.5,368.5C 198.654,377.093 193.321,381.427 184.5,381.5C 179.167,381.5 173.833,381.5 168.5,381.5C 167.602,373.876 167.269,366.209 167.5,358.5C 167.177,352.31 167.51,346.31 168.5,340.5 Z"/></g>
<g><path style="opacity:1" fill="#d3a455" d="M 226.5,376.5 C 226.5,376.167 226.5,375.833 226.5,375.5C 229.518,375.296 232.518,374.963 235.5,374.5C 235.5,375.833 235.5,377.167 235.5,378.5C 234.365,380.213 232.698,380.88 230.5,380.5C 225.833,380.5 221.167,380.5 216.5,380.5C 214.132,379.217 211.965,377.55 210,375.5C 205.41,367.735 204.244,359.401 206.5,350.5C 207.496,350.586 208.329,350.252 209,349.5C 208.7,355.147 208.7,360.814 209,366.5C 211.054,371.558 214.554,375.392 219.5,378C 221.5,378.667 223.5,378.667 225.5,378C 226.056,377.617 226.389,377.117 226.5,376.5 Z"/></g>
<g><path style="opacity:0.784" fill="#7d6037" d="M 271.5,374.5 C 269.806,377.531 267.14,379.364 263.5,380C 259.642,380.81 255.976,380.643 252.5,379.5C 259.396,379.88 265.729,378.214 271.5,374.5 Z"/></g>
<g><path style="opacity:0.765" fill="#6d4f27" d="M 216.5,380.5 C 221.167,380.5 225.833,380.5 230.5,380.5C 228.316,381.266 225.982,381.933 223.5,382.5C 221.018,381.933 218.684,381.266 216.5,380.5 Z"/></g>
</svg>
